<svg xmlns="http://www.w3.org/2000/svg" version="1.1" xmlns:xlink="http://www.w3.org/1999/xlink" xmlns:svgjs="http://svgjs.dev/svgjs" width="2000" height="2250" viewBox="0 0 2000 2250"><g transform="matrix(1,0,0,1,0.00014687500004129106,0)"><svg viewBox="0 0 320 360" data-background-color="#ffffff" preserveAspectRatio="xMidYMid meet" height="2250" width="2000" xmlns="http://www.w3.org/2000/svg" xmlns:xlink="http://www.w3.org/1999/xlink"><g id="tight-bounds" transform="matrix(1,0,0,1,0.000023499999997511622,0)"><svg viewBox="0 0 320 360" height="360" width="320"><g><svg></svg></g><g><svg viewBox="0 0 320 360" height="360" width="320"><g><path transform="translate(-74.99272,-51.79039) scale(4.65793,4.65793)" d="M20.6 59.9l0.8 1-0.4-1.3c-0.1-0.6-0.8 0.1-0.4 0.3M21.5 59.3c0.3 0.5 0.6 1 0.6 1.5 0 0.7 0.6 1 1.1 1.2-0.7-0.8-1.1-3-1.7-2.7M59.9 16.9c1.7 0 3.3-0.2 5.1 0.2 4.4 1.1 8.1 3.3 10.6 6.4l7 11.2c0.3 2.8 0.9 5.9 0.8 9.3 0.7 0 0.6-1 1.4-1.2-0.8 2-1.2 4.5-1.4 7.4-0.5-1.6 0-4 0.1-5.3-0.7 1.1-1.1 0.3-1.1-0.2 0.1-0.8-0.3-0.7-0.6-1-1.1-1-1.8-2.1-2.6-3.8 0.5-1.3 0.6-3.2-1-4.2-0.5-0.3-1.1-0.8-1.4-1.6-0.4-1.1-1.1-2.4-0.9-4.1 0.1-0.5-1.5 1.1-2.4 0.4-3.9-2.7-7.8-5.8-12.5-8.4-2.5 0-4.3-0.9-5.2-2-0.8-1-0.2-2.3 1-2.4 0.7 0 1.5-0.2 2.1 0.2 0.1-0.4 0.5-0.9 1-0.9M50 14.6l0.2 0.1c1 0.2 1.5 1.6 2.6 1.1 0 0.7 0.1 1.4-0.1 1.9-0.3 0.8-1.2 0.8-1.9 0.8-6.7-0.4-10.6 2.4-14.7 4.8-1.1 0.7-2.3 1.2-3.2 2.1-4.3 4-9 7.7-10.1 15.1l-0.9 8.2c-0.1 0.9-1.1 1.8-0.9 2.9l0.7 4.9c-0.7-0.7-1.1 0.2-0.9 0.6 0.1 0.3 0.5 1.3 1.1 0.4 0.8 1.5 1.6 4.4 2.7 5.7 3.4 4 7.8 7.6 11.4 11.2 0.9-0.2 1.6-0.2 1.8-0.8 0.3 0.6-0.3 1.2-0.8 1.3 1.6 1 3.4 1.9 5.8 2.1 3.1 0.2 6 0.7 8.7 1.4 1.4-0.4 2.8-0.6 4.3-0.7 0.5 0 0.8-0.8 1.4-1l0.1-1c0.6 0.9 0.5-0.3 0.1-0.9 0.7 0.6 0.9 1.1 1.2 1.5 0-0.3 0.8-1.4 0.8-0.1l0.2-1.3c0.3-0.2 0.4 1.1 0.7 0.2 0.3-0.9 0.9-0.2 1.5-0.5-0.2 0.4-0.1 1.2 0.6 0.7l0.8-0.7c0.5 1.2 1.3 0.7 1.7 0.5 4.4-2.8 8.8-6.1 13-9.4l-0.1 1.3 0.5-1.6c0.5 0.5 0.9 0.1 1.1-0.2 0.6-1 1.4-2 2.7-2.9-1.6 4.3-3.5 7.7-5.9 10.5l-1 1.2c0 0.7-0.2 1.6-1 1.7-0.4 0.1-1.2-0.2-1.8 0.4-0.3 0.4 0.7 1.2-0.1 0.6-0.7-0.5-1.4 0-2.2 0.2-0.6 0.2 0.4 0.8 0.6 1.2 0.2 0.4 0.4 0.8 0.3 1.3l-1.1-1.2c-1.3 0.7-2.1 2-3.2 3-0.5 0.4-0.3 1.1-0.3 1.7-0.7 0-1.5-0.2-1.9 0.2-0.3 0.4-0.2 1-0.2 1.6-1-0.1-1.1-1.6-2-1.3-0.9 0.2-1.9 0.3-2.7 0.8 0.6 1.2-1 0.5-0.8 0.7-1.5-0.9-2.8-1.6-4.4-1-3.4-1.1-7.6-0.6-10.7-0.2 0-0.5 0.1-1-0.1-1.1-0.2 0.5-0.8 0.3-0.7 0.3-1.9-1.3-3.8-2.1-5.8-3.2-1.8 0.2-3.5-0.7-4-1.2-1.4-1.3-3-0.6-4.3-0.9-2.8-0.7-3.8-3.6-4.1-5.6-0.2-1-1-1.4-1.3-1.3-1.3-4.2-3.3-8-4.9-11.9-0.4-1-0.3-2-0.3-3.1 0.5 0.2 1 0.1 0.9-0.6-0.5-3.3-1.7-5.8-3-8.2 0.7-3.4 0.8-7.4 2.4-10.4 1.4-2.7 4-4.1 5.8-6.4 0.6-0.8 0.6-1.9 1.2-2.6 2-2 4-4.1 6.2-5.9 1-0.8 2.2 0 3.7-0.3 0.5-1.8 2.5-3.4 4.4-2.9 0.8 0.2 2.4-1.9 2.9-2.1 0.8-0.3 0.4 0.8 0.4 1.5 1.9-1.5 4.5-2.3 6.9-3.2" fill="#6230a3" fill-rule="nonzero" stroke="none" stroke-width="1" stroke-linecap="butt" stroke-linejoin="miter" stroke-miterlimit="10" stroke-dasharray="" stroke-dashoffset="0" font-family="none" font-weight="none" font-size="none" text-anchor="none" style="mix-blend-mode: normal" data-fill-palette-color="tertiary"></path></g><g transform="matrix(1,0,0,1,64,135.65725913828106)"><svg viewBox="0 0 192 88.68548172343785" height="88.68548172343785" width="192"><g><svg viewBox="0 0 192 88.68548172343785" height="88.68548172343785" width="192"><g><svg viewBox="0 0 192 88.68548172343785" height="88.68548172343785" width="192"><g transform="matrix(1,0,0,1,0,53.603144705616955)"><svg viewBox="0 0 192 35.08233701782088" height="35.08233701782088" width="192"><g id="textblocktransform"><svg viewBox="0 0 192 35.08233701782088" height="35.08233701782088" width="192" id="textblock"><g><svg viewBox="0 0 192 35.08233701782088" height="35.08233701782088" width="192"><g transform="matrix(1,0,0,1,0,0)"><svg width="192" viewBox="4.45 -38.85 221.62 40.5" height="35.08233701782088" data-palette-color="#6230a3"><path d="M32.7 0L25.95 0Q24.2-2.25 22.6-4.3 21-6.35 19.45-8.4 17.9-10.45 16.32-12.55 14.75-14.65 13-16.9L13-16.9Q12.35-16.2 11.75-15.63 11.15-15.05 10.45-14.45L10.45-14.45Q10.45-10.6 10.48-7.23 10.5-3.85 10.5 0L10.5 0 4.45 0 4.45-36.25 10.5-36.25 10.5-22.7Q10.5-22.25 10.43-21.83 10.35-21.4 10.35-20.95L10.35-20.95Q10.6-21.3 10.85-21.58 11.1-21.85 11.35-22.25L11.35-22.25Q14.9-25.6 18.2-29.23 21.5-32.85 25.05-36.25L25.05-36.25 32-36.25Q28.25-32.35 24.58-28.4 20.9-24.45 17.15-20.55L17.15-20.55Q19.25-17.85 21.18-15.33 23.1-12.8 24.98-10.3 26.85-7.8 28.75-5.25 30.65-2.7 32.7 0L32.7 0ZM32.5-10.25L32.5-10.25Q32.5-12.55 33.37-14.58 34.25-16.6 35.75-18.13 37.25-19.65 39.22-20.55 41.2-21.45 43.45-21.45L43.45-21.45Q44.95-21.45 46.2-21.08 47.45-20.7 48.35-20.15 49.25-19.6 49.8-19 50.35-18.4 50.55-17.95L50.55-17.95 50.75-20.9 54.85-20.9 54.85 0 50.55 0 50.55-2.65Q50.3-2.25 49.75-1.7 49.2-1.15 48.32-0.68 47.45-0.2 46.25 0.15 45.05 0.5 43.5 0.5L43.5 0.5Q41.1 0.5 39.07-0.38 37.05-1.25 35.6-2.73 34.15-4.2 33.32-6.15 32.5-8.1 32.5-10.25ZM36.8-10.5L36.8-10.5Q36.8-9.05 37.32-7.8 37.85-6.55 38.75-5.65 39.65-4.75 40.9-4.23 42.15-3.7 43.65-3.7L43.65-3.7Q45.15-3.7 46.42-4.23 47.7-4.75 48.62-5.68 49.55-6.6 50.05-7.83 50.55-9.05 50.55-10.5L50.55-10.5Q50.55-11.95 50.05-13.18 49.55-14.4 48.62-15.3 47.7-16.2 46.42-16.73 45.15-17.25 43.65-17.25L43.65-17.25Q42.15-17.25 40.9-16.73 39.65-16.2 38.75-15.3 37.85-14.4 37.32-13.18 36.8-11.95 36.8-10.5ZM73.3-21.45L72.34-15.95Q70.95-15.95 69.65-15.58 68.34-15.2 67.32-14.45 66.3-13.7 65.7-12.58 65.09-11.45 65.09-10L65.09-10 65.09 0 60.85 0 60.85-20.9 64.59-20.9Q64.7-19.35 64.77-18.07 64.84-16.8 64.95-15.55L64.95-15.55Q65.59-16.9 66.65-18 67.7-19.1 68.9-19.85 70.09-20.6 71.25-21.03 72.4-21.45 73.3-21.45L73.3-21.45ZM75.84-28.9L75.84-28.9Q75.84-30.1 76.72-30.9 77.59-31.7 78.59-31.7L78.59-31.7Q79.59-31.7 80.44-30.9 81.29-30.1 81.29-28.9L81.29-28.9Q81.29-27.7 80.44-26.93 79.59-26.15 78.59-26.15L78.59-26.15Q77.59-26.15 76.72-26.93 75.84-27.7 75.84-28.9ZM80.64-20.9L80.64 0 76.39 0 76.39-20.9 80.64-20.9ZM86.64 0L86.64-20.9 90.39-20.9Q90.49-19.35 90.57-18.07 90.64-16.8 90.74-15.55L90.74-15.55Q91.89-18.25 94.02-19.85 96.14-21.45 99.24-21.45L99.24-21.45Q102.39-21.45 104.29-19.7 106.19-17.95 106.29-15.2L106.29-15.2 106.29 0 101.99 0 101.99-13.25Q101.89-14.85 100.89-15.98 99.89-17.1 97.74-17.2L97.74-17.2Q96.24-17.2 94.99-16.68 93.74-16.15 92.84-15.25 91.94-14.35 91.42-13.1 90.89-11.85 90.89-10.35L90.89-10.35 90.89 0 86.64 0ZM110.64-10.25L110.64-10.25Q110.64-12.55 111.51-14.58 112.39-16.6 113.89-18.13 115.39-19.65 117.36-20.55 119.34-21.45 121.59-21.45L121.59-21.45Q123.09-21.45 124.34-21.08 125.59-20.7 126.49-20.15 127.39-19.6 127.94-19 128.49-18.4 128.69-17.95L128.69-17.95 128.89-20.9 132.99-20.9 132.99 0 128.69 0 128.69-2.65Q128.44-2.25 127.89-1.7 127.34-1.15 126.46-0.68 125.59-0.2 124.39 0.15 123.19 0.5 121.64 0.5L121.64 0.5Q119.24 0.5 117.21-0.38 115.19-1.25 113.74-2.73 112.29-4.2 111.46-6.15 110.64-8.1 110.64-10.25ZM114.94-10.5L114.94-10.5Q114.94-9.05 115.46-7.8 115.99-6.55 116.89-5.65 117.79-4.75 119.04-4.23 120.29-3.7 121.79-3.7L121.79-3.7Q123.29-3.7 124.56-4.23 125.84-4.75 126.76-5.68 127.69-6.6 128.19-7.83 128.69-9.05 128.69-10.5L128.69-10.5Q128.69-11.95 128.19-13.18 127.69-14.4 126.76-15.3 125.84-16.2 124.56-16.73 123.29-17.25 121.79-17.25L121.79-17.25Q120.29-17.25 119.04-16.73 117.79-16.2 116.89-15.3 115.99-14.4 115.46-13.18 114.94-11.95 114.94-10.5ZM140.68-36.25L146.08-36.25Q146.43-35.4 147.23-33.48 148.03-31.55 149.06-29.1 150.08-26.65 151.21-23.9 152.33-21.15 153.33-18.7 154.33-16.25 155.13-14.33 155.93-12.4 156.28-11.55L156.28-11.55Q156.33-11.45 156.53-10.85 156.73-10.25 156.83-9.8L156.83-9.8 157.33-11.55Q157.68-12.4 158.48-14.33 159.28-16.25 160.28-18.7 161.28-21.15 162.41-23.9 163.53-26.65 164.56-29.1 165.58-31.55 166.38-33.48 167.18-35.4 167.53-36.25L167.53-36.25 172.93-36.25Q172.63-35.55 171.86-33.73 171.08-31.9 169.98-29.3 168.88-26.7 167.56-23.6 166.23-20.5 164.86-17.3 163.48-14.1 162.16-11 160.83-7.9 159.76-5.3 158.68-2.7 157.91-0.88 157.13 0.95 156.83 1.65L156.83 1.65 140.68-36.25ZM173.68-28.9L173.68-28.9Q173.68-30.1 174.56-30.9 175.43-31.7 176.43-31.7L176.43-31.7Q177.43-31.7 178.28-30.9 179.13-30.1 179.13-28.9L179.13-28.9Q179.13-27.7 178.28-26.93 177.43-26.15 176.43-26.15L176.43-26.15Q175.43-26.15 174.56-26.93 173.68-27.7 173.68-28.9ZM178.48-20.9L178.48 0 174.23 0 174.23-20.9 178.48-20.9ZM188.78-38.85L188.78 0 184.53 0 184.53-38.85 188.78-38.85ZM199.13-38.85L199.13 0 194.88 0 194.88-38.85 199.13-38.85ZM203.72-10.25L203.72-10.25Q203.72-12.55 204.6-14.58 205.47-16.6 206.97-18.13 208.47-19.65 210.45-20.55 212.42-21.45 214.67-21.45L214.67-21.45Q216.17-21.45 217.42-21.08 218.67-20.7 219.57-20.15 220.47-19.6 221.02-19 221.57-18.4 221.77-17.95L221.77-17.95 221.97-20.9 226.07-20.9 226.07 0 221.77 0 221.77-2.65Q221.52-2.25 220.97-1.7 220.42-1.15 219.55-0.68 218.67-0.2 217.47 0.15 216.27 0.5 214.72 0.5L214.72 0.5Q212.32 0.5 210.3-0.38 208.27-1.25 206.82-2.73 205.37-4.2 204.55-6.15 203.72-8.1 203.72-10.25ZM208.02-10.5L208.02-10.5Q208.02-9.05 208.55-7.8 209.07-6.55 209.97-5.65 210.87-4.75 212.12-4.23 213.37-3.7 214.87-3.7L214.87-3.7Q216.37-3.7 217.65-4.23 218.92-4.75 219.85-5.68 220.77-6.6 221.27-7.83 221.77-9.05 221.77-10.5L221.77-10.5Q221.77-11.95 221.27-13.18 220.77-14.4 219.85-15.3 218.92-16.2 217.65-16.73 216.37-17.25 214.87-17.25L214.87-17.25Q213.37-17.25 212.12-16.73 210.87-16.2 209.97-15.3 209.07-14.4 208.55-13.18 208.02-11.95 208.02-10.5Z" opacity="1" transform="matrix(1,0,0,1,0,0)" fill="#6230a3" class="wordmark-text-0" data-fill-palette-color="primary" id="text-0"></path></svg></g></svg></g></svg></g></svg></g><g transform="matrix(1,0,0,1,42.80246581118679,0)"><svg viewBox="0 0 106.39506837762642 48.48378975862846" height="48.48378975862846" width="106.39506837762642"><g><svg xmlns="http://www.w3.org/2000/svg" xmlns:xlink="http://www.w3.org/1999/xlink" version="1.1" x="0" y="0" viewBox="5 29.49387475885969 90 41.012625348283166" enable-background="new 0 0 100 100" xml:space="preserve" height="48.48378975862846" width="106.39506837762642" class="icon-icon-0" data-fill-palette-color="accent" id="icon-0"><g fill="#fec200" data-fill-palette-color="accent"><path d="M23.943 30.807L5 50.001l18.942 19.192c1.728 1.751 4.53 1.751 6.258 0.002 1.729-1.75 1.73-4.587 0.002-6.338L18.193 50.695l-3.624 2.289 15.634-15.841c0.864-0.875 1.295-2.021 1.295-3.168 0-1.147-0.433-2.295-1.297-3.17C28.473 29.056 25.671 29.057 23.943 30.807z" fill="#fec200" data-fill-palette-color="accent"></path><path d="M76.057 30.808L95 50.001 76.058 69.193c-1.728 1.751-4.53 1.751-6.258 0.002-1.729-1.75-1.73-4.587-0.002-6.338l12.009-12.161 3.624 2.289L69.796 37.144c-0.864-0.875-1.295-2.021-1.295-3.168 0-1.147 0.433-2.295 1.297-3.17C71.527 29.056 74.329 29.057 76.057 30.808z" fill="#fec200" data-fill-palette-color="accent"></path><path d="M60.899 32.352c-0.419-1.068-1.241-1.978-2.366-2.476-2.249-0.997-4.857 0.028-5.825 2.288l-13.82 32.062c-0.484 1.13-0.467 2.355-0.048 3.422 0.419 1.068 1.241 1.978 2.366 2.476 2.249 0.997 4.857-0.028 5.825-2.288l13.82-32.062C61.335 34.644 61.318 33.419 60.899 32.352z" fill="#fec200" data-fill-palette-color="accent"></path></g></svg></g></svg></g><g></g></svg></g></svg></g></svg></g></svg></g><defs></defs></svg><rect width="320" height="360" fill="none" stroke="none" visibility="hidden"></rect></g></svg></g></svg>